<svg xmlns="http://www.w3.org/2000/svg" width="213" height="29.57" viewBox="0 0 213 29.57"><defs><style>.a{fill:#fff;}.b{fill:#b0c500;}</style></defs><g transform="translate(-811.687 -561.041)"><path class="a" d="M869.549,564.433a2.879,2.879,0,0,0,1.042,2.281,3.383,3.383,0,0,0,2.343.963,3.509,3.509,0,0,0,2.41-.963,2.968,2.968,0,0,0,1-2.281,3.086,3.086,0,0,0-1-2.309,3.461,3.461,0,0,0-2.41-.9,3.331,3.331,0,0,0-2.343.9,2.989,2.989,0,0,0-1.042,2.309" transform="translate(22.222 0.069)"/><path class="a" d="M828.576,582.428a12.3,12.3,0,0,1-4.833,1.228,5.681,5.681,0,0,1-4.183-1.518,5.124,5.124,0,0,1-1.69-3.968,5.423,5.423,0,0,1,1.6-4.089,5.841,5.841,0,0,1,4.273-1.515,10.184,10.184,0,0,1,4.66,1.042V569.3a14.247,14.247,0,0,0-5.157-.93,12.338,12.338,0,0,0-8.405,2.72,9.539,9.539,0,0,0-.123,14.062,11.529,11.529,0,0,0,7.856,2.648,15.729,15.729,0,0,0,6-1.132Z" transform="translate(0 2.814)"/><rect class="a" width="5.897" height="18.821" transform="translate(892.304 571.463)"/><path class="a" d="M855.722,581.66A11.261,11.261,0,0,1,849.013,584a8.419,8.419,0,0,1-2.011-.23,6.061,6.061,0,0,1-2.335-1.183,4.458,4.458,0,0,1-1.618-3.67h13.1v-.642a10,10,0,0,0-2.562-7.245A8.932,8.932,0,0,0,847,568.409h-.394a9.443,9.443,0,0,0-6.843,2.664,8.864,8.864,0,0,0-2.682,6.649,9.611,9.611,0,0,0,2.945,7.286A10.582,10.582,0,0,0,847,587.743a3.684,3.684,0,0,0,.68.039,12.064,12.064,0,0,0,8.04-2.619Zm-12.672-5.722c.41-2.594,1.711-3.922,3.953-3.922a3.525,3.525,0,0,1,2.581,1.115,4.951,4.951,0,0,1,1.361,2.807Z" transform="translate(9.753 2.83)"/><path class="a" d="M866.9,588.817V590.2h5.888V561.251H866.9v10.861a10.462,10.462,0,0,0-4.356-1.01h-.248a10.181,10.181,0,0,0-7.215,2.758,9.493,9.493,0,0,0-2.848,7.02,9.3,9.3,0,0,0,9.59,9.651,4.6,4.6,0,0,0,.721-.076,13.016,13.016,0,0,0,4.356-1.637m-4.356-2.064a4.418,4.418,0,0,1-2.886-1.741,6.52,6.52,0,0,1-1.488-4.3,6.3,6.3,0,0,1,1.488-4.2,4.484,4.484,0,0,1,2.886-1.611,5.731,5.731,0,0,1,.677-.078,9.452,9.452,0,0,1,3.679.948v9.575a6.261,6.261,0,0,1-3.729,1.45,3.764,3.764,0,0,1-.627-.037" transform="translate(15.571 0.081)"/><path class="a" d="M842.038,569.639a8.5,8.5,0,0,0-4.019-1.271,3.969,3.969,0,0,0-2.6,1.01,17.3,17.3,0,0,0-3.063,3.749V568.65h-5.841v18.82h5.841V579.73a6.726,6.726,0,0,1,1.275-4.1,3.54,3.54,0,0,1,2.959-1.767,6.743,6.743,0,0,1,3.308,1.225Z" transform="translate(5.695 2.814)"/><path class="b" d="M935.671,573.128v-4.479H929.83V587.47h5.841v-7.74a6.932,6.932,0,0,1,1.3-4.1,3.588,3.588,0,0,1,2.938-1.766,6.735,6.735,0,0,1,3.315,1.225l2.152-5.45a8.419,8.419,0,0,0-4.029-1.271,3.962,3.962,0,0,0-2.559,1.01,17.812,17.812,0,0,0-3.118,3.749" transform="translate(45.372 2.814)"/><rect class="b" width="5.834" height="29.243" transform="translate(941.561 561.041)"/><path class="b" d="M955.366,573.708a5.292,5.292,0,0,0,1.107,3.464,12.486,12.486,0,0,0,4.083,2.822,17.2,17.2,0,0,1,2.4,1.33,1.545,1.545,0,0,1,.49,1.208c0,.963-.757,1.446-2.2,1.446a9.537,9.537,0,0,1-5.881-2.011v4.177a12.842,12.842,0,0,0,6.617,1.653,8.706,8.706,0,0,0,5.378-1.582,4.774,4.774,0,0,0,2.146-3.936,4.862,4.862,0,0,0-1.24-3.575,11.837,11.837,0,0,0-4.258-2.749c-1.86-.742-2.764-1.579-2.764-2.347,0-1.013.79-1.522,2.288-1.522a9.179,9.179,0,0,1,4.94,1.672V569.7a15.46,15.46,0,0,0-5.911-1.329,8.23,8.23,0,0,0-5.059,1.561,4.755,4.755,0,0,0-2.138,3.778" transform="translate(55.179 2.814)"/><path class="b" d="M902.481,587.343a4.01,4.01,0,0,0,2.338.59,7.617,7.617,0,0,0,2.515-.425,16.837,16.837,0,0,0,2.945-1.118v-3.348c-.436.158-.875.273-1.157.4a5.763,5.763,0,0,1-.828.039c-.277,0-.433-.039-.554-.217a1.365,1.365,0,0,1-.232-.966v-7.616c0-2.386-.661-4.108-1.935-5.127-1.221-1.073-3.33-1.652-6.091-1.652-.353,0-.648.054-.861.054a16.585,16.585,0,0,0-3.956.59,12.483,12.483,0,0,0-3.895,1.708l-.071,4.829a14.34,14.34,0,0,1,3.318-2.333,8.578,8.578,0,0,1,3.416-.8c.414,0,.788.066,1.188.1a4.149,4.149,0,0,1,1.751.594,2.5,2.5,0,0,1,.911,2.043v.331c0,.07-.066.119-.066.241-.926.221-1.808.5-2.595.733a27.92,27.92,0,0,0-6.75,2.778,4.522,4.522,0,0,0-2.142,3.828,5.407,5.407,0,0,0,1.441,3.965,6.024,6.024,0,0,0,4.25,1.378,10.355,10.355,0,0,0,3.2-.5h.026a12.844,12.844,0,0,0,2.919-1.668,2.088,2.088,0,0,0,.915,1.576m-4.4-3.223a2.264,2.264,0,0,1-1.561-.516,1.924,1.924,0,0,1-.594-1.485,2.559,2.559,0,0,1,1.06-1.992,8.817,8.817,0,0,1,1.635-.847,15.754,15.754,0,0,1,2.595-1.015v4.652a6.3,6.3,0,0,1-1.621.9,6.819,6.819,0,0,1-.974.3Z" transform="translate(29.971 2.634)"/><path class="b" d="M958.7,581.66A11.18,11.18,0,0,1,952.015,584a8.176,8.176,0,0,1-2.005-.23,6.138,6.138,0,0,1-2.31-1.183,4.45,4.45,0,0,1-1.635-3.67h13.067v-.642a10.016,10.016,0,0,0-2.58-7.245,8.818,8.818,0,0,0-6.542-2.624h-.362a9.315,9.315,0,0,0-6.858,2.664,8.937,8.937,0,0,0-2.722,6.649A9.455,9.455,0,0,0,943.084,585a10.206,10.206,0,0,0,6.926,2.747,3.816,3.816,0,0,0,.665.039,11.993,11.993,0,0,0,8.026-2.619Zm-8.691-5.722h-3.945c.374-2.594,1.721-3.9,3.945-3.9a3.408,3.408,0,0,1,2.566,1.1,4.67,4.67,0,0,1,1.331,2.807Z" transform="translate(49.304 2.83)"/><path class="b" d="M933.622,578.112a8.929,8.929,0,0,0-2.969-7.064,11.146,11.146,0,0,0-7.824-2.68,11.3,11.3,0,0,0-7.818,2.68,9.885,9.885,0,0,0,0,14.1,12.87,12.87,0,0,0,15.642,0,9.09,9.09,0,0,0,2.969-7.036m-10.793,5.7a4.141,4.141,0,0,1-3.222-1.529,7.683,7.683,0,0,1-.12-8.356,3.914,3.914,0,0,1,3.252-1.562h.09c3.043.039,4.6,1.963,4.6,5.752a6.491,6.491,0,0,1-1.175,4.166,3.88,3.88,0,0,1-3.232,1.529Z" transform="translate(38.545 2.814)"/><path class="b" d="M886.884,587.393l8.946-18.821h-6.111l-4.019,9.236-3.958-9.236h-6.485l8.986,18.821Z" transform="translate(24.413 2.892)"/></g></svg>