<svg xmlns="http://www.w3.org/2000/svg" xmlns:xlink="http://www.w3.org/1999/xlink" width="57.536" height="57.536" viewBox="0 0 57.536 57.536"><defs><style>.a,.e{fill:none;}.b{fill:#9fbb00;}.c{clip-path:url(#a);}.d{fill:#006582;}.d,.e{isolation:isolate;}.e{stroke:#006582;stroke-miterlimit:10;stroke-width:2px;}</style><clipPath id="a"><circle class="a" cx="28.768" cy="28.768" r="28.768"/></clipPath></defs><circle class="b" cx="28.768" cy="28.768" r="28.768"/><g class="c"><g transform="translate(8.488 11.398)"><path class="d" d="M777.579,16.641V4.828c0-8.117-7.239-14.758-16.086-14.758h0c-8.847,0-16.086,6.641-16.086,14.758V16.641a2.156,2.156,0,0,0,2.156,2.156h5.887a2.056,2.056,0,0,0-.112.664,2.082,2.082,0,0,0,1.607,2.02,15.651,15.651,0,0,0-8.913,14.129h31.3a15.649,15.649,0,0,0-9.2-14.257,2.081,2.081,0,0,0,1.227-1.891,2.055,2.055,0,0,0-.112-.664h6.174A2.156,2.156,0,0,0,777.579,16.641Z" transform="translate(-741.221 10.529)"/><path class="b" d="M755.32,20.765a1.725,1.725,0,0,1-1.725-1.725V9.584c0-6.5,5.794-11.813,12.876-11.813h0c7.082,0,12.876,5.316,12.876,11.813V19.04a1.725,1.725,0,0,1-1.725,1.725Z" transform="translate(-746.342 5.712)"/><path class="d" d="M784.793,35.761a.544.544,0,0,1,.546.616,3.969,3.969,0,0,1-7.842,0,.545.545,0,0,1,.546-.616Z" transform="translate(-761.289 -18.051)"/><circle class="d" cx="1.494" cy="1.494" r="1.494" transform="translate(12.862 12.097)"/><circle class="d" cx="1.494" cy="1.494" r="1.494" transform="translate(24.097 12.097)"/><path class="d" d="M738.463,35.7a4.234,4.234,0,0,1,0-8.469Z" transform="translate(-734.229 -12.718)"/><line class="e" y1="12.323" transform="translate(2.549 2.545)"/><circle class="d" cx="1.473" cy="1.473" r="1.473" transform="translate(1.075)"/><circle class="d" cx="1.473" cy="1.473" r="1.473" transform="translate(36.653)"/><g transform="translate(36.327 2.545)"><path class="d" d="M831.229,35.7a4.234,4.234,0,0,0,0-8.469Z" transform="translate(-831.229 -15.263)"/><line class="e" y1="12.323" transform="translate(1.686)"/></g></g></g></svg>