<svg xmlns="http://www.w3.org/2000/svg" width="237.707" height="33" viewBox="0 0 237.707 33"><defs><style>.a{fill:#cecece;}</style></defs><path class="a" d="M869.549,564.806a3.212,3.212,0,0,0,1.163,2.546,3.775,3.775,0,0,0,2.615,1.075,3.916,3.916,0,0,0,2.689-1.075,3.313,3.313,0,0,0,1.12-2.546,3.444,3.444,0,0,0-1.12-2.576,3.862,3.862,0,0,0-2.689-1.008,3.717,3.717,0,0,0-2.615,1.008,3.336,3.336,0,0,0-1.163,2.576" transform="translate(-780.176 -560.943)"/><path class="a" d="M830.536,584.059a13.727,13.727,0,0,1-5.394,1.37,6.34,6.34,0,0,1-4.668-1.694,5.718,5.718,0,0,1-1.886-4.428,6.052,6.052,0,0,1,1.785-4.563,6.519,6.519,0,0,1,4.768-1.691,11.366,11.366,0,0,1,5.2,1.163v-4.81a15.9,15.9,0,0,0-5.755-1.038c-3.937,0-7.028,1-9.38,3.035a10.645,10.645,0,0,0-.138,15.693,12.866,12.866,0,0,0,8.767,2.955,17.554,17.554,0,0,0,6.7-1.264Z" transform="translate(-811.687 -557.051)"/><rect class="a" width="6.581" height="21.004" transform="translate(89.969 11.631)"/><path class="a" d="M857.884,583.2a12.567,12.567,0,0,1-7.487,2.617,9.4,9.4,0,0,1-2.244-.256,6.764,6.764,0,0,1-2.606-1.321,4.975,4.975,0,0,1-1.806-4.1H858.36v-.717a11.163,11.163,0,0,0-2.859-8.086,9.968,9.968,0,0,0-7.348-2.929h-.44a10.538,10.538,0,0,0-7.636,2.973,9.892,9.892,0,0,0-2.993,7.42,10.725,10.725,0,0,0,3.287,8.131,11.81,11.81,0,0,0,7.783,3.052,4.116,4.116,0,0,0,.758.043,13.464,13.464,0,0,0,8.973-2.922Zm-14.142-6.385c.457-2.895,1.909-4.377,4.411-4.377a3.934,3.934,0,0,1,2.881,1.245,5.525,5.525,0,0,1,1.518,3.133Z" transform="translate(-797.857 -557.029)"/><path class="a" d="M868.6,592.015v1.547h6.571V561.251H868.6v12.12a11.675,11.675,0,0,0-4.861-1.128h-.276a11.362,11.362,0,0,0-8.052,3.078,10.6,10.6,0,0,0-3.179,7.834,10.379,10.379,0,0,0,10.7,10.77,5.134,5.134,0,0,0,.8-.085,14.527,14.527,0,0,0,4.861-1.827m-4.861-2.3a4.931,4.931,0,0,1-3.221-1.943,7.276,7.276,0,0,1-1.66-4.8,7.026,7.026,0,0,1,1.66-4.69,5,5,0,0,1,3.221-1.8,6.4,6.4,0,0,1,.755-.087,10.549,10.549,0,0,1,4.105,1.058v10.685a6.987,6.987,0,0,1-4.161,1.619,4.2,4.2,0,0,1-.7-.042" transform="translate(-789.607 -560.927)"/><path class="a" d="M843.838,569.786a9.49,9.49,0,0,0-4.485-1.418,4.429,4.429,0,0,0-2.9,1.128,19.3,19.3,0,0,0-3.418,4.184v-5h-6.518v21h6.518v-8.639a7.505,7.505,0,0,1,1.423-4.574,3.951,3.951,0,0,1,3.3-1.972,7.525,7.525,0,0,1,3.692,1.367Z" transform="translate(-803.611 -557.051)"/><path class="a" d="M936.348,573.68v-5H929.83v21h6.518v-8.637a7.737,7.737,0,0,1,1.452-4.577,4,4,0,0,1,3.279-1.971,7.516,7.516,0,0,1,3.7,1.367l2.4-6.083a9.4,9.4,0,0,0-4.5-1.418,4.422,4.422,0,0,0-2.856,1.128,19.879,19.879,0,0,0-3.48,4.184" transform="translate(-747.348 -557.051)"/><rect class="a" width="6.51" height="32.635" transform="translate(144.939)"/><path class="a" d="M955.366,574.327a5.906,5.906,0,0,0,1.236,3.866,13.934,13.934,0,0,0,4.557,3.149,19.19,19.19,0,0,1,2.677,1.484,1.724,1.724,0,0,1,.547,1.348c0,1.075-.845,1.614-2.453,1.614a10.643,10.643,0,0,1-6.563-2.244v4.662a14.332,14.332,0,0,0,7.385,1.844,9.716,9.716,0,0,0,6-1.766,5.328,5.328,0,0,0,2.4-4.393,5.427,5.427,0,0,0-1.384-3.99,13.21,13.21,0,0,0-4.751-3.068c-2.076-.828-3.084-1.762-3.084-2.62,0-1.131.882-1.7,2.553-1.7a10.245,10.245,0,0,1,5.513,1.866v-4.532a17.255,17.255,0,0,0-6.6-1.483,9.184,9.184,0,0,0-5.645,1.742,5.306,5.306,0,0,0-2.386,4.217" transform="translate(-733.441 -557.051)"/><path class="a" d="M903.96,589.6a4.475,4.475,0,0,0,2.609.658,8.5,8.5,0,0,0,2.806-.474,18.791,18.791,0,0,0,3.287-1.248V584.8c-.487.176-.976.3-1.291.443a6.438,6.438,0,0,1-.924.043c-.309,0-.484-.043-.618-.243a1.523,1.523,0,0,1-.259-1.078v-8.5c0-2.663-.738-4.584-2.159-5.721-1.362-1.2-3.716-1.844-6.8-1.844-.394,0-.723.06-.961.06a18.508,18.508,0,0,0-4.414.658,13.931,13.931,0,0,0-4.346,1.906l-.079,5.389a16,16,0,0,1,3.7-2.6,9.574,9.574,0,0,1,3.812-.894c.462,0,.879.074,1.325.108a4.63,4.63,0,0,1,1.954.663,2.785,2.785,0,0,1,1.016,2.28v.369c0,.079-.074.133-.074.269-1.033.247-2.017.562-2.9.818-3.767,1.2-6.291,2.21-7.533,3.1a5.046,5.046,0,0,0-2.391,4.272,6.034,6.034,0,0,0,1.608,4.425,6.722,6.722,0,0,0,4.744,1.538,11.554,11.554,0,0,0,3.573-.556h.029a14.333,14.333,0,0,0,3.257-1.861,2.33,2.33,0,0,0,1.021,1.759m-4.91-3.6a2.527,2.527,0,0,1-1.742-.576,2.148,2.148,0,0,1-.663-1.657,2.856,2.856,0,0,1,1.183-2.223,9.846,9.846,0,0,1,1.824-.945,17.585,17.585,0,0,1,2.9-1.132v5.191a7.027,7.027,0,0,1-1.809,1.009,7.621,7.621,0,0,1-1.087.334Z" transform="translate(-769.187 -557.306)"/><path class="a" d="M960.862,583.2a12.477,12.477,0,0,1-7.461,2.617,9.125,9.125,0,0,1-2.238-.256,6.85,6.85,0,0,1-2.578-1.321,4.966,4.966,0,0,1-1.824-4.1h14.583v-.717a11.178,11.178,0,0,0-2.879-8.086,9.842,9.842,0,0,0-7.3-2.929h-.4a10.4,10.4,0,0,0-7.654,2.973,9.974,9.974,0,0,0-3.038,7.42,10.551,10.551,0,0,0,3.367,8.117,11.39,11.39,0,0,0,7.729,3.066,4.263,4.263,0,0,0,.742.043,13.384,13.384,0,0,0,8.957-2.922Zm-9.7-6.385h-4.4c.417-2.895,1.92-4.356,4.4-4.356a3.8,3.8,0,0,1,2.864,1.223,5.212,5.212,0,0,1,1.486,3.133Z" transform="translate(-741.773 -557.029)"/><path class="a" d="M936.123,579.242a9.965,9.965,0,0,0-3.313-7.884,12.438,12.438,0,0,0-8.732-2.99,12.606,12.606,0,0,0-8.725,2.99,11.031,11.031,0,0,0,0,15.736,14.363,14.363,0,0,0,17.457,0,10.144,10.144,0,0,0,3.313-7.853M924.079,585.6a4.621,4.621,0,0,1-3.6-1.707,8.575,8.575,0,0,1-.134-9.325,4.369,4.369,0,0,1,3.63-1.744h.1c3.4.043,5.133,2.19,5.133,6.419a7.244,7.244,0,0,1-1.311,4.649,4.33,4.33,0,0,1-3.607,1.707Z" transform="translate(-757.028 -557.051)"/><path class="a" d="M888.233,589.576l9.984-21H891.4l-4.485,10.307-4.417-10.307h-7.237l10.029,21Z" transform="translate(-777.068 -556.94)"/></svg>