<svg xmlns="http://www.w3.org/2000/svg" width="52.18" height="65.379" viewBox="0 0 52.18 65.379"><defs><style>.a,.d{fill:#006584;}.a{opacity:0.1;}.b{fill:#fff;}.c{fill:#9fc335;}</style></defs><g transform="translate(-8 -0.997)"><path class="a" d="M8.833,56.248V51.581s1.2-3.842,18-5.417c-.074.375-3.678-6.756-8.416-12.25s-5.189-9.16-5.167-15.25,5.7-16.755,19.333-16.833,18.338,12.712,18.25,18.5-2.658,11.2-4.25,12.583-8.63,10.77-9.083,13.25c.348-.214,17.892,1.29,17.667,6.917.028.041,0,3.167,0,3.167s-4.508,7.168-24.5,6S8.833,56.248,8.833,56.248Z" transform="translate(5 4)"/><path class="b" d="M8.833,56.248V51.581s1.2-3.842,18-5.417c-.074.375-3.678-6.756-8.416-12.25s-5.189-9.16-5.167-15.25,5.7-16.755,19.333-16.833,18.338,12.712,18.25,18.5-2.658,11.2-4.25,12.583-8.63,10.77-9.083,13.25c.348-.214,17.892,1.29,17.667,6.917.028.041,0,3.167,0,3.167s-4.508,7.168-24.5,6S8.833,56.248,8.833,56.248Z"/><circle class="c" cx="14" cy="14" r="14" transform="translate(18 6.998)"/><path class="d" d="M46,21A14,14,0,1,0,32,35,14.015,14.015,0,0,0,46,21ZM20,21A12,12,0,1,1,32,33,12.013,12.013,0,0,1,20,21Z"/><path class="d" d="M40.96,16.555a9.958,9.958,0,0,0-1.507-2.222l-1.489,1.334a8.053,8.053,0,0,1,1.206,1.778Z"/><path class="d" d="M42,21a10.008,10.008,0,0,0-.248-2.221l-1.95.442A8.009,8.009,0,0,1,32,29v2A10.011,10.011,0,0,0,42,21Z"/><path class="d" d="M27,37h2v2H27Z"/><path class="d" d="M31,37h2v2H31Z"/><path class="d" d="M35,37h2v2H35Z"/><path class="d" d="M19.252,51.918q-1.032-.2-1.905-.415l-.477,1.942q.917.225,2,.437Z"/><path class="d" d="M23.132,52.511c-.681-.08-1.332-.168-1.949-.262l-.3,1.978q.958.146,2.016.271Z"/><path class="d" d="M27.06,52.856q-1.017-.062-1.967-.145L24.919,54.7q.977.085,2.022.148Z"/><path class="d" d="M48.13,50.816c-.6-.167-1.266-.333-2-.492l-.425,1.954c.69.15,1.32.307,1.885.465Z"/><path class="d" d="M40.094,49.392q-.973-.1-2.021-.177l-.146,1.995q1.017.073,1.963.171Z"/><path class="d" d="M44.125,49.936q-.951-.162-2.013-.306l-.266,1.982c.682.091,1.33.191,1.941.295Z"/><path class="d" d="M38.808,45.273A52.527,52.527,0,0,1,46.6,34.652a20,20,0,1,0-29.118.09A50.243,50.243,0,0,1,25.23,45.27C16.633,45.949,8,48.026,8,52v4c0,4.6,12.074,7,24,7s24-2.4,24-7V52c0-3.967-8.611-6.044-17.192-6.727ZM14.094,19.133A18.006,18.006,0,0,1,29.94,3.114,18.826,18.826,0,0,1,32.025,3,17.794,17.794,0,0,1,44,7.585a17.983,17.983,0,0,1,1.139,25.7,50.827,50.827,0,0,0-10.865,17.07l-.524,1.424a1.868,1.868,0,0,1-3.506,0L29.6,50.015a48.9,48.9,0,0,0-10.663-16.65,18.025,18.025,0,0,1-4.841-14.232ZM26.223,47.206c.555,1.156,1.063,2.321,1.5,3.5l.649,1.763a3.869,3.869,0,0,0,7.26,0l.524-1.424a41.738,41.738,0,0,1,1.65-3.837C48.368,47.935,54,50.431,54,52c0,2.039-8.57,5-22,5s-22-2.961-22-5c0-1.572,5.641-4.069,16.223-4.794ZM32,61c-13.43,0-22-2.961-22-5V54.981C13.914,57.629,23,59,32,59s18.086-1.371,22-4.019V56c0,2.039-8.57,5-22,5Z"/></g></svg>