<svg xmlns="http://www.w3.org/2000/svg" width="30.828" height="30.828" viewBox="0 0 30.828 30.828"><defs><style>.a{fill:#a9a9ac;}</style></defs><path class="a" d="M319.19,301.649c-.087-.29-.445-.426-.813-.426a.786.786,0,0,0-.8.426l-1.867,6.085a.561.561,0,0,0-.019.1c0,.31.455.522.793.522.213,0,.377-.067.426-.251l.367-1.287h2.216l.368,1.287c.048.184.213.251.425.251.339,0,.793-.222.793-.522a.426.426,0,0,0-.019-.1Zm-1.654,4.179.842-2.97.842,2.97Zm0,0" transform="translate(-296.68 -283.086)"/><path class="a" d="M27.507,12.576H18.252V8.623l3.008-2.148a.9.9,0,0,0,0-1.47L18.216,2.831A3.327,3.327,0,0,0,14.93,0H3.322A3.325,3.325,0,0,0,0,3.322V14.93a3.325,3.325,0,0,0,3.322,3.321h9.255V22.2L9.569,24.353a.9.9,0,0,0,0,1.47L12.613,28A3.327,3.327,0,0,0,15.9,30.828H27.507a3.325,3.325,0,0,0,3.321-3.322V15.9A3.325,3.325,0,0,0,27.507,12.576ZM3.322,16.446A1.517,1.517,0,0,1,1.806,14.93V3.321A1.517,1.517,0,0,1,3.322,1.806H14.93a1.517,1.517,0,0,1,1.515,1.515.9.9,0,0,0,.378.735L19.181,5.74,16.824,7.424a.9.9,0,0,0-.378.735v4.418H15.9A3.325,3.325,0,0,0,12.576,15.9v.548Zm25.7,11.061a1.517,1.517,0,0,1-1.515,1.515H15.9a1.517,1.517,0,0,1-1.515-1.515A.9.9,0,0,0,14,26.772l-2.357-1.684L14,23.4a.9.9,0,0,0,.378-.735V15.9A1.517,1.517,0,0,1,15.9,14.382H27.507A1.517,1.517,0,0,1,29.022,15.9Zm0,0"/><path class="a" d="M103.079,95.12a.509.509,0,0,0,0-1.019h-2.266V92.865a.509.509,0,1,0-1.019,0V94.1H97.529a.509.509,0,0,0,0,1.019h.7a4.858,4.858,0,0,0,1.274,2.8,3.834,3.834,0,0,1-1.976.546.509.509,0,0,0,0,1.019,4.845,4.845,0,0,0,2.775-.87,4.846,4.846,0,0,0,2.775.87.509.509,0,0,0,0-1.019,3.83,3.83,0,0,1-1.976-.546,4.858,4.858,0,0,0,1.274-2.8ZM100.3,97.285a3.847,3.847,0,0,1-1.046-2.164h2.093A3.846,3.846,0,0,1,100.3,97.285Zm0,0" transform="translate(-91.178 -86.795)"/></svg>