<svg xmlns="http://www.w3.org/2000/svg" width="16" height="15.784" viewBox="0 0 16 15.784"><defs><style>.a{fill:#fff;}</style></defs><path class="a" d="M304.618,138.515v5.993h-3.474v-5.591c0-1.4-.5-2.363-1.76-2.363a1.9,1.9,0,0,0-1.782,1.27,2.38,2.38,0,0,0-.115.847v5.836h-3.475s.047-9.469,0-10.45h3.475v1.481c-.007.012-.017.023-.023.034h.023v-.034a3.45,3.45,0,0,1,3.131-1.726c2.286,0,4,1.494,4,4.7Zm-16,5.993h3.473v-10.45h-3.473Zm0,0,3.577-14a1.788,1.788,0,1,1-1.789-1.789A1.788,1.788,0,0,1,292.195,130.513Z" transform="translate(-288.618 -128.724)"/></svg>