<svg xmlns="http://www.w3.org/2000/svg" width="69.545" height="69.696" viewBox="0 0 69.545 69.696"><defs><style>.a,.d{fill:#006584;}.a{opacity:0.2;}.b{fill:#fff;}.c{fill:#9fc335;}</style></defs><path class="a" d="M0,64V13.5L13.6-.1H52.549V4.415h9.823a2.756,2.756,0,0,1,2.755,2.846c.01,2.817,0,14.506,0,14.506a2.82,2.82,0,0,1-2.755,3.213c-3.105.2-9.823,0-9.823,0V65.192H0Z" transform="translate(4.407 4.504)"/><path class="b" d="M0,64V13.5L13.6-.1H52.549V4.415h9.823a2.756,2.756,0,0,1,2.755,2.846c.01,2.817,0,14.506,0,14.506a2.82,2.82,0,0,1-2.755,3.213c-3.105.2-9.823,0-9.823,0V65.192H0Z" transform="translate(0 0.097)"/><path class="c" d="M3.046,13.819l10.9-10.772V14.308Z" transform="translate(-0.809 -0.738)"/><g transform="translate(0 0.071)"><path class="d" d="M62.27,4.222h-9.5V0H13.284L0,13.284V65.436H52.771V25.33h9.5a3.17,3.17,0,0,0,3.166-3.166V7.388A3.17,3.17,0,0,0,62.27,4.222ZM12.665,3.6v9.062H3.6Zm38,59.722H2.111V14.776H14.776V2.111H50.66V4.222H24.275a3.17,3.17,0,0,0-3.166,3.166V22.164a3.17,3.17,0,0,0,3.166,3.166H50.66ZM63.325,22.164a1.057,1.057,0,0,1-1.055,1.055h-38a1.057,1.057,0,0,1-1.055-1.055V7.388a1.057,1.057,0,0,1,1.055-1.055h38a1.057,1.057,0,0,1,1.055,1.055Z"/><path class="d" d="M198.86,64H192V76.665h2.111V71.388h4.749a3.694,3.694,0,0,0,0-7.388Zm0,5.277h-4.749V66.111h4.749a1.583,1.583,0,0,1,0,3.166Z" transform="translate(-166.67 -55.557)"/><rect class="d" width="2" height="2" transform="translate(3.842 16.718)"/><rect class="d" width="2" height="2" transform="translate(8.842 16.718)"/><rect class="d" width="2" height="2" transform="translate(3.842 20.718)"/><path class="d" d="M292.222,64H288V76.665h4.222a6.333,6.333,0,0,0,0-12.665Zm0,10.554h-2.111V66.111h2.111a4.222,4.222,0,0,1,0,8.443Z" transform="translate(-250.005 -55.557)"/><path class="d" d="M384,76.665h2.111V71.388h6.333V69.277h-6.333V66.111h8.443V64H384Z" transform="translate(-333.34 -55.557)"/><path class="c" d="M62.776,213.18v.959a5.162,5.162,0,0,0,.87,2.873l3.139,4.708-6.333,9.5H53.18A5.186,5.186,0,0,0,48,236.4v.194a5.18,5.18,0,0,0,9.49,2.873l4.092-6.136H74.525l4.091,6.136a5.18,5.18,0,0,0,9.49-2.873V236.4a5.186,5.186,0,0,0-5.18-5.18H75.654l-6.333-9.5,3.139-4.708a5.165,5.165,0,0,0,.87-2.873v-.959A5.186,5.186,0,0,0,68.15,208h-.194A5.186,5.186,0,0,0,62.776,213.18ZM55.734,238.3a3.069,3.069,0,0,1-5.623-1.7V236.4a3.073,3.073,0,0,1,3.069-3.069h5.865Zm27.192-4.966A3.073,3.073,0,0,1,86,236.4v.194a3.069,3.069,0,0,1-5.623,1.7l-3.311-4.966Zm-9.809-2.111H62.988l5.065-7.6Zm-8.23-18.039a3.073,3.073,0,0,1,3.069-3.069h.194a3.073,3.073,0,0,1,3.069,3.069v.959a3.062,3.062,0,0,1-.515,1.7l-2.651,3.976L65.4,215.841a3.057,3.057,0,0,1-.515-1.7Z" transform="translate(-41.667 -180.559)"/><rect class="d" width="2" height="2" transform="translate(25.842 54.718)"/><rect class="d" width="2" height="2" transform="translate(29.842 54.718)"/><rect class="d" width="2" height="2" transform="translate(20.842 54.718)"/></g></svg>