<svg xmlns="http://www.w3.org/2000/svg" width="111" height="111" viewBox="0 0 111 111"><defs><style>.a,.c{fill:#fff;}.a{opacity:0;}.b{fill:#006584;}.d{fill:#9fc335;}</style></defs><g transform="translate(0 0.359)"><rect class="a" width="111" height="111" transform="translate(0 -0.359)"/><path class="b" d="M39.46,89.082,7.7,43.493S4.918,6.9,39.46,4.564,70.707,43.493,70.707,43.493Z" transform="translate(15.86 9.266)"/><path class="c" d="M40.88,2A36.881,36.881,0,0,0,4,38.513C4,63.774,36.5,91.9,37.884,93.094a4.61,4.61,0,0,0,5.993,0C45.49,91.9,77.76,63.774,77.76,38.511A36.88,36.88,0,0,0,40.88,2Zm0,81.367c-7.7-7.33-27.66-27.66-27.66-44.856a27.66,27.66,0,1,1,55.32,0C68.54,55.569,48.579,76.037,40.88,83.367Z" transform="translate(14.44 7.22)"/><path class="d" d="M24.635,6A16.135,16.135,0,1,0,40.77,22.135,16.135,16.135,0,0,0,24.635,6Zm0,23.05a6.915,6.915,0,1,1,6.915-6.915A6.915,6.915,0,0,1,24.635,29.05Z" transform="translate(30.685 21.66)"/></g></svg>