<svg xmlns="http://www.w3.org/2000/svg" width="19.688" height="16" viewBox="0 0 19.688 16"><defs><style>.a{fill:#fff;}</style></defs><path class="a" d="M79.172,248.113a8.061,8.061,0,0,1-2.32.636,4.053,4.053,0,0,0,1.776-2.235,8.083,8.083,0,0,1-2.565.98,4.042,4.042,0,0,0-6.883,3.684,11.464,11.464,0,0,1-8.325-4.22,4.043,4.043,0,0,0,1.249,5.393,4.022,4.022,0,0,1-1.829-.506c0,.017,0,.034,0,.051a4.041,4.041,0,0,0,3.241,3.96,4.041,4.041,0,0,1-1.824.07,4.042,4.042,0,0,0,3.773,2.8,8.162,8.162,0,0,1-5.98,1.673,11.487,11.487,0,0,0,17.684-9.678q0-.262-.012-.522a8.2,8.2,0,0,0,2.016-2.091Zm0,0" transform="translate(-59.484 -246.219)"/></svg>